<?xml version="1.0" standalone="no"?>
<!DOCTYPE svg PUBLIC "-//W3C//DTD SVG 20010904//EN"
 "http://www.w3.org/TR/2001/REC-SVG-20010904/DTD/svg10.dtd">
<svg version="1.0" xmlns="http://www.w3.org/2000/svg"
 width="1462.000000pt" height="595.000000pt" viewBox="0 0 1462.000000 595.000000"
 preserveAspectRatio="xMidYMid meet">

<g transform="translate(0.000000,595.000000) scale(0.100000,-0.100000)"
fill="#000000" stroke="none">
<path d="M3770 3578 c0 -178 5 -352 11 -388 14 -92 59 -181 125 -250 49 -52
60 -58 85 -53 19 4 29 1 29 -6 0 -8 -8 -10 -22 -6 -22 6 -22 6 -4 -9 78 -63
286 -82 397 -38 30 12 64 29 75 38 18 15 18 15 -3 9 -15 -4 -23 -2 -23 6 0 7
10 10 29 6 26 -6 36 1 88 57 121 128 133 184 133 624 l0 332 -460 0 -460 0 0
-322z m84 287 c14 -14 34 -25 46 -25 11 0 20 -7 20 -15 0 -20 37 -38 66 -31
18 5 22 3 18 -8 -7 -17 29 -56 52 -56 9 0 25 -12 37 -26 15 -20 27 -25 48 -22
21 3 29 0 29 -10 0 -23 30 -52 54 -52 12 0 25 -9 31 -22 8 -18 18 -23 48 -23
31 0 37 -3 37 -21 0 -24 18 -42 46 -47 10 -1 31 -15 46 -30 21 -21 33 -26 53
-21 14 3 25 2 23 -2 -1 -5 1 -19 6 -32 6 -17 13 -21 31 -16 19 5 27 0 39 -24
17 -34 40 -45 69 -36 19 6 19 2 16 -103 -4 -99 -7 -115 -37 -176 -24 -48 -39
-67 -53 -67 -12 0 -19 7 -19 20 0 16 -7 20 -31 20 -22 0 -32 -5 -36 -20 -3
-13 -14 -20 -29 -20 -22 0 -23 3 -17 51 5 44 3 52 -16 65 -11 8 -21 23 -21 33
0 24 -70 79 -117 90 -21 5 -53 15 -70 22 -28 11 -42 11 -98 -4 -63 -17 -122
-58 -110 -77 3 -5 23 -14 43 -21 l38 -11 -33 -35 c-18 -19 -31 -39 -28 -44 10
-16 46 -10 73 12 24 18 27 19 30 4 2 -9 -2 -23 -10 -32 -10 -13 -10 -17 0 -20
22 -8 13 -33 -12 -33 -15 0 -26 7 -29 20 -4 15 -14 20 -36 20 -24 0 -31 -4
-31 -20 0 -14 -7 -20 -24 -20 -15 0 -26 7 -29 20 -4 15 -14 20 -36 20 -24 0
-31 -4 -31 -20 0 -13 -7 -20 -19 -20 -14 0 -29 18 -52 66 -26 52 -33 81 -37
145 l-5 79 347 0 c275 0 346 3 340 13 -6 8 -3 8 9 -1 9 -8 21 -12 27 -10 6 2
-152 114 -352 249 -360 243 -363 245 -366 282 l-3 36 253 -170 c491 -332 598
-402 603 -397 3 3 -188 135 -424 294 -237 159 -430 292 -431 297 -1 17 41 5
64 -18z m90 2 c-1 -9 3 -14 8 -11 5 3 7 12 4 20 -5 12 31 14 219 14 l225 0 0
-30 0 -30 -169 0 c-160 0 -169 1 -174 20 -5 21 -31 27 -42 10 -3 -5 -12 -7
-19 -4 -7 3 -19 -2 -26 -11 -16 -19 -36 -19 -44 0 -3 8 -12 12 -20 9 -17 -6
-56 12 -56 27 0 6 20 9 48 7 37 -3 47 -7 46 -21z m726 8 c0 -11 -12 -15 -45
-15 -44 0 -45 -1 -43 -29 2 -17 -1 -29 -7 -28 -5 1 -9 12 -7 25 3 20 -1 23
-25 20 -15 -1 -31 -7 -35 -13 -5 -6 -8 -2 -8 8 0 14 -9 17 -45 17 -33 0 -45 4
-45 15 0 13 21 15 130 15 109 0 130 -2 130 -15z m-620 -30 c0 -8 -7 -15 -15
-15 -8 0 -15 7 -15 15 0 8 7 15 15 15 8 0 15 -7 15 -15z m-50 -10 c0 -8 -7
-15 -15 -15 -16 0 -20 12 -8 23 11 12 23 8 23 -8z m424 -44 c1 -28 -2 -51 -6
-51 -5 0 -8 26 -8 57 0 69 11 64 14 -6z m97 14 c-1 -15 -24 -12 -29 3 -3 9 2
13 12 10 10 -1 17 -7 17 -13z m-470 -10 c-1 -15 -24 -12 -29 3 -3 9 2 13 12
10 10 -1 17 -7 17 -13z m-181 -81 c0 -2 -18 -4 -40 -4 -38 0 -40 2 -40 30 l0
30 40 -26 c22 -15 40 -28 40 -30z m200 41 c0 -8 -6 -15 -14 -15 -7 0 -19 7
-26 15 -11 13 -8 15 14 15 16 0 26 -5 26 -15z m40 -1 c0 -17 -22 -14 -28 4 -2
7 3 12 12 12 9 0 16 -7 16 -16z m290 -14 l0 -30 -90 0 c-71 0 -88 3 -84 13 8
21 -23 42 -40 28 -8 -6 -18 -11 -22 -10 -22 4 -34 -2 -34 -16 0 -8 -6 -15 -14
-15 -21 0 -29 17 -11 24 8 3 15 12 15 21 0 13 21 15 140 15 l140 0 0 -30z
m270 10 c0 -5 -5 -10 -11 -10 -5 0 -7 5 -4 10 3 6 8 10 11 10 2 0 4 -4 4 -10z
m-455 -11 c10 -15 -1 -23 -20 -15 -9 3 -13 10 -10 16 8 13 22 13 30 -1z m-50
-29 c-5 -8 -11 -8 -17 -2 -6 6 -7 16 -3 22 5 8 11 8 17 2 6 -6 7 -16 3 -22z
m271 5 c4 -8 17 -15 30 -15 13 0 24 -4 24 -10 0 -5 -9 -10 -20 -10 -23 0 -24
-4 -10 -30 12 -23 74 -42 107 -34 22 6 23 8 8 30 -23 35 -18 43 8 12 18 -21
26 -25 35 -16 17 17 15 38 -4 38 -8 0 -12 -4 -9 -10 3 -5 1 -10 -4 -10 -6 0
-11 9 -11 20 0 16 7 20 31 20 16 0 28 4 25 9 -3 5 1 11 9 15 12 4 15 -7 15
-64 l0 -70 -130 0 -130 0 0 70 c0 66 12 92 26 55z m-216 -30 c0 -8 -7 -15 -15
-15 -8 0 -15 7 -15 15 0 8 7 15 15 15 8 0 15 -7 15 -15z m295 -25 c-10 -19
-20 -28 -27 -23 -9 5 -9 8 0 11 7 2 12 10 12 17 0 11 9 19 28 24 1 1 -5 -13
-13 -29z m-466 -67 c2 -1 -55 -3 -127 -3 l-132 0 0 30 0 29 83 3 c76 3 85 1
127 -26 25 -16 47 -31 49 -33z m231 52 c0 -8 -7 -15 -15 -15 -8 0 -15 7 -15
15 0 8 7 15 15 15 8 0 15 -7 15 -15z m-40 -5 c0 -5 -9 -10 -19 -10 -11 0 -23
5 -26 10 -4 6 5 10 19 10 14 0 26 -4 26 -10z m160 -1 c0 -5 -6 -6 -14 -3 -11
4 -13 0 -9 -17 4 -16 2 -20 -8 -17 -8 3 -14 12 -13 20 1 10 -7 13 -27 10 -16
-2 -29 -8 -29 -12 0 -5 10 -6 21 -3 16 4 20 2 17 -8 -5 -16 -64 -23 -73 -9 -3
5 2 18 12 29 14 14 31 19 71 19 28 0 52 -4 52 -9z m-12 -67 c2 -7 -3 -12 -12
-12 -9 0 -16 7 -16 16 0 17 22 14 28 -4z m59 -33 c8 -8 50 -11 117 -11 l106 2
0 -31 0 -30 -57 3 c-55 3 -58 4 -56 28 1 14 0 18 -3 8 -6 -21 -34 -24 -34 -4
0 8 -11 13 -27 12 -20 -1 -28 -7 -30 -21 -1 -16 -1 -16 3 -2 6 20 34 23 34 3
0 -15 -45 -30 -60 -21 -14 9 -12 32 3 38 13 6 -10 9 -58 9 -26 0 -27 0 -5 5
14 2 29 9 35 14 12 12 19 11 32 -2z m-207 -73 c0 -1 -101 0 -225 2 l-225 3 0
29 0 30 173 2 172 3 53 -34 c28 -19 52 -34 52 -35z m316 3 c10 -17 -13 -36
-27 -22 -12 12 -4 33 11 33 5 0 12 -5 16 -11z m51 -49 c-3 -14 0 -19 12 -18
34 3 51 -3 51 -16 0 -13 -28 -26 -57 -26 -13 0 -35 58 -27 71 10 17 26 9 21
-11z m-215 -59 c4 -4 -130 -5 -297 -3 l-305 3 0 24 0 25 263 2 262 3 35 -24
c19 -14 38 -27 42 -30z m-122 -277 c11 -11 12 -16 2 -26 -19 -19 -14 -28 13
-28 16 0 25 -6 25 -15 0 -11 -12 -15 -50 -15 -54 0 -53 -2 -54 72 -1 35 1 37
24 31 14 -3 32 -12 40 -19z m115 -36 c-8 -5 -15 -18 -15 -28 0 -15 -7 -20 -25
-20 -31 0 -31 9 -2 53 20 32 23 34 40 19 16 -14 16 -17 2 -24z m-425 -33 c0
-9 -9 -15 -25 -15 -16 0 -25 6 -25 15 0 9 9 15 25 15 16 0 25 -6 25 -15z m120
0 c0 -9 -9 -15 -25 -15 -16 0 -25 6 -25 15 0 9 9 15 25 15 16 0 25 -6 25 -15z
m120 0 c0 -9 -9 -15 -25 -15 -16 0 -25 6 -25 15 0 9 9 15 25 15 16 0 25 -6 25
-15z m230 0 c0 -9 -9 -15 -25 -15 -16 0 -25 6 -25 15 0 9 9 15 25 15 16 0 25
-6 25 -15z m120 0 c0 -9 -9 -15 -25 -15 -16 0 -25 6 -25 15 0 9 9 15 25 15 16
0 25 -6 25 -15z m-620 -35 c0 -5 -11 -10 -25 -10 -14 0 -25 5 -25 10 0 6 11
10 25 10 14 0 25 -4 25 -10z m60 0 c0 -5 -11 -10 -25 -10 -14 0 -25 5 -25 10
0 6 11 10 25 10 14 0 25 -4 25 -10z m60 0 c0 -5 -11 -10 -25 -10 -14 0 -25 5
-25 10 0 6 11 10 25 10 14 0 25 -4 25 -10z m60 0 c0 -5 -11 -10 -25 -10 -14 0
-25 5 -25 10 0 6 11 10 25 10 14 0 25 -4 25 -10z m60 0 c0 -5 -11 -10 -25 -10
-14 0 -25 5 -25 10 0 6 11 10 25 10 14 0 25 -4 25 -10z m60 0 c0 -5 -11 -10
-25 -10 -14 0 -25 5 -25 10 0 6 11 10 25 10 14 0 25 -4 25 -10z m50 0 c0 -5
-9 -10 -20 -10 -11 0 -20 5 -20 10 0 6 9 10 20 10 11 0 20 -4 20 -10z m60 0
c0 -5 -11 -10 -25 -10 -14 0 -25 5 -25 10 0 6 11 10 25 10 14 0 25 -4 25 -10z
m60 0 c0 -5 -11 -10 -25 -10 -14 0 -25 5 -25 10 0 6 11 10 25 10 14 0 25 -4
25 -10z m60 0 c0 -5 -11 -10 -25 -10 -14 0 -25 5 -25 10 0 6 11 10 25 10 14 0
25 -4 25 -10z m60 0 c0 -5 -11 -10 -25 -10 -14 0 -25 5 -25 10 0 6 11 10 25
10 14 0 25 -4 25 -10z m60 0 c0 -5 -11 -10 -25 -10 -14 0 -25 5 -25 10 0 6 11
10 25 10 14 0 25 -4 25 -10z m-620 -30 c0 -5 -11 -10 -25 -10 -14 0 -25 5 -25
10 0 6 11 10 25 10 14 0 25 -4 25 -10z m60 0 c0 -5 -11 -10 -25 -10 -14 0 -25
5 -25 10 0 6 11 10 25 10 14 0 25 -4 25 -10z m60 0 c0 -5 -11 -10 -25 -10 -14
0 -25 5 -25 10 0 6 11 10 25 10 14 0 25 -4 25 -10z m60 0 c0 -5 -11 -10 -25
-10 -14 0 -25 5 -25 10 0 6 11 10 25 10 14 0 25 -4 25 -10z m58 -7 c2 -7 -1
-13 -8 -13 -6 0 -9 4 -6 9 4 5 -3 7 -14 4 -12 -3 -20 0 -20 7 0 15 42 9 48 -7z
m52 7 c0 -5 -9 -10 -20 -10 -11 0 -20 5 -20 10 0 6 9 10 20 10 11 0 20 -4 20
-10z m60 1 c0 -9 -41 -23 -48 -16 -2 2 -1 8 3 14 8 13 45 15 45 2z m60 -1 c0
-5 -11 -10 -25 -10 -14 0 -25 5 -25 10 0 6 11 10 25 10 14 0 25 -4 25 -10z
m60 0 c0 -5 -11 -10 -25 -10 -14 0 -25 5 -25 10 0 6 11 10 25 10 14 0 25 -4
25 -10z m60 0 c0 -5 -11 -10 -25 -10 -14 0 -25 5 -25 10 0 6 11 10 25 10 14 0
25 -4 25 -10z m60 0 c0 -5 -11 -10 -25 -10 -14 0 -25 5 -25 10 0 6 11 10 25
10 14 0 25 -4 25 -10z m-560 -35 c0 -16 -9 -19 -34 -9 -25 9 -19 24 9 24 16 0
25 -6 25 -15z m60 0 c0 -9 -9 -15 -25 -15 -16 0 -25 6 -25 15 0 9 9 15 25 15
16 0 25 -6 25 -15z m60 0 c0 -9 -9 -15 -25 -15 -16 0 -25 6 -25 15 0 9 9 15
25 15 16 0 25 -6 25 -15z m64 9 c9 -3 16 -11 16 -16 0 -7 -4 -7 -13 0 -8 7
-18 7 -27 2 -21 -14 -30 -12 -30 5 0 15 26 20 54 9z m84 -56 l3 -58 -31 0
c-30 0 -30 1 -30 53 0 60 5 69 35 65 17 -3 20 -11 23 -60z m82 47 c0 -8 -9
-15 -20 -15 -11 0 -20 7 -20 15 0 8 9 15 20 15 11 0 20 -7 20 -15z m60 0 c0
-9 -9 -15 -25 -15 -16 0 -25 6 -25 15 0 9 9 15 25 15 16 0 25 -6 25 -15z m60
0 c0 -9 -9 -15 -25 -15 -16 0 -25 6 -25 15 0 9 9 15 25 15 16 0 25 -6 25 -15z
m60 6 c0 -9 -24 -21 -41 -21 -5 0 -9 7 -9 15 0 9 9 15 25 15 14 0 25 -4 25 -9z
m-230 -5 c0 -3 -4 -8 -10 -11 -5 -3 -10 -1 -10 4 0 6 5 11 10 11 6 0 10 -2 10
-4z m-210 -36 c0 -5 -11 -10 -25 -10 -14 0 -25 5 -25 10 0 6 11 10 25 10 14 0
25 -4 25 -10z m60 0 c0 -5 -11 -10 -25 -10 -14 0 -25 5 -25 10 0 6 11 10 25
10 14 0 25 -4 25 -10z m50 0 c0 -5 -4 -10 -10 -10 -5 0 -10 5 -10 10 0 6 5 10
10 10 6 0 10 -4 10 -10z m100 0 c0 -5 -4 -10 -10 -10 -5 0 -10 5 -10 10 0 6 5
10 10 10 6 0 10 -4 10 -10z m80 0 c0 -5 -11 -10 -25 -10 -14 0 -25 5 -25 10 0
6 11 10 25 10 14 0 25 -4 25 -10z m60 0 c0 -5 -11 -10 -25 -10 -14 0 -25 5
-25 10 0 6 11 10 25 10 14 0 25 -4 25 -10z m-320 -30 c0 -5 -11 -10 -25 -10
-14 0 -25 5 -25 10 0 6 11 10 25 10 14 0 25 -4 25 -10z m50 0 c0 -5 -9 -10
-20 -10 -11 0 -20 5 -20 10 0 6 9 10 20 10 11 0 20 -4 20 -10z m30 0 c0 -5 -4
-10 -10 -10 -5 0 -10 5 -10 10 0 6 5 10 10 10 6 0 10 -4 10 -10z m100 0 c0 -5
-4 -10 -10 -10 -5 0 -10 5 -10 10 0 6 5 10 10 10 6 0 10 -4 10 -10z m50 0 c0
-5 -9 -10 -20 -10 -11 0 -20 5 -20 10 0 6 9 10 20 10 11 0 20 -4 20 -10z m60
0 c0 -5 -11 -10 -25 -10 -14 0 -25 5 -25 10 0 6 11 10 25 10 14 0 25 -4 25
-10z m-210 -30 c0 -5 -4 -10 -10 -10 -5 0 -10 5 -10 10 0 6 5 10 10 10 6 0 10
-4 10 -10z m100 0 c0 -5 -4 -10 -10 -10 -5 0 -10 5 -10 10 0 6 5 10 10 10 6 0
10 -4 10 -10z"/>
<path d="M4631 3384 c0 -11 3 -14 6 -6 3 7 2 16 -1 19 -3 4 -6 -2 -5 -13z"/>
<path d="M7135 2618 c-13 -65 -14 -67 -58 -70 -42 -3 -42 -3 -42 -43 0 -38 2
-40 33 -43 33 -3 36 -10 26 -49 -5 -17 -14 -23 -35 -23 -27 0 -29 -3 -29 -40
0 -33 3 -40 20 -40 22 0 24 -8 11 -62 l-9 -38 43 0 c41 0 44 2 50 33 13 63 15
67 46 67 24 0 29 -4 25 -17 -2 -10 -7 -33 -11 -50 l-7 -33 45 0 45 0 8 48 c9
47 9 47 52 50 42 3 42 3 42 43 0 37 -2 39 -31 39 -28 0 -30 2 -27 33 2 27 8
33 31 35 25 3 27 7 27 48 0 34 -4 44 -16 44 -13 0 -15 8 -9 51 l7 50 -43 -3
c-44 -3 -44 -3 -53 -50 -8 -45 -10 -48 -38 -48 -28 0 -29 2 -23 33 4 17 9 40
11 50 5 14 -2 17 -40 17 -42 0 -45 -2 -51 -32z m111 -174 c-3 -9 -6 -24 -6
-35 0 -14 -7 -19 -30 -19 -23 0 -30 5 -30 19 0 37 12 51 42 51 23 0 29 -4 24
-16z"/>
<path d="M8620 2574 c0 -59 -2 -65 -17 -58 -37 16 -100 16 -133 -1 -43 -22
-74 -92 -68 -154 6 -62 35 -119 69 -136 40 -21 101 -19 132 5 25 20 25 20 30
-1 5 -18 12 -20 59 -17 l53 3 3 213 2 212 -65 0 -65 0 0 -66z m-16 -150 c19
-18 22 -94 4 -112 -17 -17 -53 -15 -68 3 -7 9 -13 33 -13 55 0 63 40 91 77 54z"/>
<path d="M10050 2574 c0 -59 -2 -65 -17 -58 -37 16 -100 16 -132 0 -43 -23
-65 -69 -65 -141 -1 -72 24 -129 65 -150 40 -21 101 -19 132 5 25 20 25 20 30
-1 5 -18 12 -20 59 -17 l53 3 3 213 2 212 -65 0 -65 0 0 -66z m-10 -153 c14
-27 13 -94 -2 -109 -7 -7 -21 -12 -33 -12 -32 0 -45 20 -45 70 0 25 5 51 12
58 18 18 56 14 68 -7z"/>
<path d="M11012 2428 l3 -213 60 0 60 0 3 41 c3 40 40 92 49 69 2 -5 16 -32
31 -60 l27 -50 63 -3 c43 -2 62 1 62 9 0 7 -24 54 -54 104 l-54 92 56 57 57
56 -70 0 c-79 0 -76 1 -127 -58 l-38 -42 0 105 0 105 -65 0 -65 0 2 -212z"/>
<path d="M2280 2533 c-36 -13 -60 -47 -60 -83 0 -43 23 -68 93 -98 41 -18 47
-25 47 -51 0 -39 -26 -53 -88 -50 -41 3 -47 1 -47 -16 0 -17 8 -20 63 -23 58
-3 65 -1 92 27 22 21 30 39 30 63 0 46 -18 67 -81 97 -39 19 -55 32 -57 49 -6
39 16 54 70 50 44 -3 48 -1 48 20 0 20 -5 22 -47 21 -27 0 -55 -3 -63 -6z"/>
<path d="M2517 2383 c-31 -87 -57 -161 -57 -165 0 -5 9 -8 21 -8 15 0 25 11
36 40 l16 40 64 0 65 0 15 -40 c12 -31 21 -40 40 -40 12 0 23 3 23 7 0 9 -100
284 -112 306 -5 9 -19 17 -31 17 -20 0 -29 -18 -80 -157z m113 2 l19 -55 -50
0 c-27 0 -49 3 -49 8 0 4 10 35 22 69 25 69 27 68 58 -22z"/>
<path d="M2859 2520 c-66 -35 -96 -142 -64 -226 23 -60 61 -84 137 -84 69 0
88 7 88 31 0 17 -6 18 -57 13 -50 -5 -62 -3 -85 15 -36 28 -51 86 -39 142 15
65 40 84 111 84 43 -1 61 3 65 14 3 8 0 18 -7 23 -24 15 -112 8 -149 -12z"/>
<path d="M3110 2376 l0 -166 25 0 c24 0 25 2 25 75 l0 75 80 0 80 0 0 -75 c0
-68 2 -75 20 -75 19 0 20 7 20 165 0 158 -1 165 -20 165 -18 0 -20 -7 -20 -70
l0 -70 -80 0 -79 0 -3 68 c-3 61 -5 67 -25 70 l-23 3 0 -165z"/>
<path d="M3481 2514 c-24 -20 -31 -34 -31 -63 0 -44 24 -70 85 -95 44 -19 55
-31 55 -63 0 -30 -32 -45 -88 -42 -43 3 -47 1 -50 -20 -4 -23 -2 -23 68 -19
64 3 75 7 96 31 27 31 32 83 11 111 -7 10 -38 30 -68 44 -39 20 -55 33 -57 50
-6 39 16 54 70 50 44 -3 48 -1 48 20 0 20 -5 22 -54 22 -44 0 -60 -5 -85 -26z"/>
<path d="M3727 2534 c-4 -4 -7 -79 -7 -166 l0 -158 90 0 c83 0 90 1 90 20 0
18 -7 20 -65 20 l-65 0 0 55 0 55 60 0 c53 0 60 2 60 20 0 18 -7 20 -60 20
l-60 0 0 50 0 50 66 0 c57 0 65 2 62 18 -3 14 -16 17 -84 20 -44 1 -83 0 -87
-4z"/>
<path d="M3990 2375 c0 -158 1 -165 20 -165 19 0 20 7 20 128 l0 127 78 -127
c73 -121 79 -127 110 -128 l32 0 0 165 0 165 -25 0 -24 0 -3 -121 -3 -120 -74
120 c-67 109 -77 121 -102 121 l-29 0 0 -165z"/>
<path d="M4605 2528 c-12 -33 -104 -285 -110 -300 -6 -14 -2 -18 17 -18 20 0
28 8 41 40 l15 40 65 0 64 0 16 -40 c12 -32 20 -40 41 -40 l25 0 -38 108 c-81
224 -80 222 -107 222 -14 0 -27 -6 -29 -12z m75 -189 c0 -5 -22 -9 -49 -9
l-50 0 20 58 c10 31 22 64 25 72 5 13 54 -97 54 -121z"/>
<path d="M4840 2376 l0 -166 25 0 24 0 3 121 3 120 74 -120 c67 -109 77 -121
102 -121 l29 0 0 165 c0 157 -1 165 -20 165 -18 0 -20 -8 -22 -124 l-3 -125
-75 122 c-69 112 -78 122 -108 125 l-32 3 0 -165z"/>
<path d="M5210 2375 l0 -165 25 0 c24 0 25 2 25 75 l0 75 80 0 80 0 0 -75 c0
-73 1 -75 25 -75 l25 0 0 165 0 165 -25 0 c-24 0 -25 -2 -25 -70 l0 -70 -80 0
-80 0 0 70 c0 68 -1 70 -25 70 l-25 0 0 -165z"/>
<path d="M5645 2523 c-6 -15 -49 -135 -101 -275 -13 -37 -13 -38 10 -38 18 0
28 9 40 40 l16 41 67 -3 c66 -3 66 -3 78 -38 9 -27 18 -36 38 -38 15 -2 27 -2
27 0 0 2 -26 76 -59 163 -53 144 -61 160 -84 163 -16 2 -27 -3 -32 -15z m74
-180 c1 -9 -15 -13 -49 -13 l-50 0 25 66 c14 37 25 69 26 73 1 9 48 -112 48
-126z"/>
<path d="M5887 2533 c-4 -3 -7 -78 -7 -165 l0 -158 85 0 c78 0 85 2 85 20 0
18 -7 20 -60 20 l-60 0 0 145 c0 134 -1 145 -18 145 -10 0 -22 -3 -25 -7z"/>
<path d="M6037 2533 c-4 -3 -7 -12 -7 -20 0 -9 15 -13 50 -13 l50 0 0 -145 0
-145 25 0 25 0 0 145 0 145 45 0 c38 0 45 3 45 20 0 19 -7 20 -113 20 -63 0
-117 -3 -120 -7z"/>
<path d="M7444 2517 c-2 -7 -3 -78 -2 -157 l3 -145 60 0 60 0 5 103 c4 76 9
105 20 112 45 29 60 -3 60 -124 l0 -96 60 0 60 0 0 98 c0 87 2 101 21 118 15
14 24 16 37 8 14 -9 18 -32 22 -115 l5 -104 58 -3 57 -3 0 131 0 132 -29 29
c-24 24 -38 29 -76 29 -31 0 -57 -7 -76 -21 l-29 -20 -26 20 c-36 28 -112 29
-147 1 -25 -20 -25 -20 -30 0 -4 17 -14 20 -56 20 -33 0 -53 -5 -57 -13z"/>
<path d="M8104 2516 c-65 -29 -103 -114 -84 -185 22 -82 78 -121 176 -121 102
0 163 50 172 140 6 65 -13 115 -55 147 -30 23 -48 28 -107 31 -45 1 -82 -3
-102 -12z m126 -86 c40 -40 17 -140 -32 -140 -38 0 -58 28 -58 81 0 38 5 51
22 63 30 21 44 20 68 -4z"/>
<path d="M8872 2513 c-55 -27 -77 -68 -77 -143 0 -76 26 -123 81 -146 37 -16
150 -19 186 -5 24 9 78 58 78 71 0 4 -26 10 -57 13 -43 5 -62 2 -74 -8 -30
-28 -78 -13 -92 28 -6 16 4 17 115 17 l121 0 -5 49 c-6 59 -38 108 -84 127
-45 19 -151 18 -192 -3z m130 -65 c8 -7 18 -21 21 -30 6 -16 -1 -18 -48 -18
-59 0 -70 13 -39 44 19 19 45 20 66 4z"/>
<path d="M9194 2517 c-2 -7 -3 -78 -2 -157 l3 -145 60 0 60 0 5 96 c6 109 18
134 61 125 23 -4 28 -1 43 36 12 33 13 44 3 50 -23 15 -77 8 -97 -12 l-20 -20
0 20 c0 18 -7 20 -55 20 -36 0 -57 -5 -61 -13z"/>
<path d="M9460 2370 l0 -160 60 0 60 0 0 98 c0 85 3 101 19 116 12 11 27 15
40 11 19 -6 21 -16 23 -113 l3 -107 60 0 60 0 3 100 c4 124 -3 161 -33 191
-35 35 -112 34 -154 -2 l-31 -26 0 26 c0 25 -2 26 -55 26 l-55 0 0 -160z"/>
<path d="M10300 2511 c-53 -28 -82 -84 -77 -152 4 -66 34 -114 83 -135 45 -19
158 -18 199 2 30 14 73 61 63 68 -2 2 -28 6 -59 10 -44 4 -59 3 -69 -9 -24
-29 -79 -13 -93 28 -6 16 4 17 115 17 l121 0 -5 51 c-9 94 -67 139 -178 139
-44 0 -76 -6 -100 -19z m132 -63 c8 -7 18 -21 21 -30 6 -16 -1 -18 -48 -18
-59 0 -70 13 -39 44 19 19 45 20 66 4z"/>
<path d="M10624 2517 c-2 -7 -3 -78 -2 -157 l3 -145 60 0 60 0 5 103 c4 76 9
105 20 112 45 28 59 2 62 -116 l3 -99 60 0 60 0 3 98 c5 163 -22 217 -107 217
-28 0 -59 -8 -78 -19 -31 -19 -31 -19 -36 0 -4 16 -14 19 -56 19 -33 0 -53 -5
-57 -13z"/>
<path d="M11465 2516 c-103 -46 -123 -185 -40 -266 33 -32 41 -35 110 -38 89
-5 136 9 171 51 l27 32 -58 7 c-44 6 -62 4 -78 -7 -29 -20 -60 -19 -80 3 -34
37 -23 42 103 42 l120 0 -6 43 c-8 52 -31 94 -67 121 -35 26 -156 34 -202 12z
m127 -73 c33 -30 23 -43 -37 -43 -59 0 -68 10 -38 42 20 22 51 23 75 1z"/>
<path d="M11780 2370 l0 -160 60 0 60 0 0 94 c0 76 4 98 18 116 13 16 24 21
39 16 27 -9 33 -32 33 -139 l0 -88 58 3 57 3 3 100 c4 124 -3 161 -33 191 -32
32 -110 34 -148 4 -14 -11 -28 -20 -31 -20 -3 0 -6 9 -6 20 0 18 -7 20 -55 20
l-55 0 0 -160z"/>
<path d="M4330 2330 c0 -19 5 -21 57 -18 46 2 59 7 61 21 3 15 -5 17 -57 17
-55 0 -61 -2 -61 -20z"/>
<path d="M2197 2043 c-34 -33 -55 -33 2039 -33 1943 0 2045 1 2042 18 -3 16
-109 17 -2039 20 -1120 1 -2039 -1 -2042 -5z"/>
<path d="M4903 1812 c-6 -4 -15 -20 -18 -35 -4 -15 -13 -27 -21 -27 -8 0 -14
-4 -14 -10 0 -5 7 -10 15 -10 12 0 15 -14 15 -65 0 -51 3 -65 15 -65 12 0 15
14 15 65 0 58 2 65 20 65 11 0 20 5 20 10 0 6 -9 10 -21 10 -30 0 -22 44 9 48
12 2 22 8 22 13 0 11 -40 12 -57 1z"/>
<path d="M3470 1790 c0 -13 5 -20 13 -17 6 2 12 10 12 17 0 7 -6 15 -12 18 -8
2 -13 -5 -13 -18z"/>
<path d="M3720 1790 c0 -13 5 -20 13 -17 6 2 12 10 12 17 0 7 -6 15 -12 18 -8
2 -13 -5 -13 -18z"/>
<path d="M4294 1799 c-10 -17 13 -36 27 -22 12 12 4 33 -11 33 -5 0 -12 -5
-16 -11z"/>
<path d="M4995 1801 c-7 -12 12 -24 25 -16 11 7 4 25 -10 25 -5 0 -11 -4 -15
-9z"/>
<path d="M5057 1804 c-8 -8 1 -24 14 -24 5 0 9 7 9 15 0 15 -12 20 -23 9z"/>
<path d="M3220 1793 c0 -9 -17 -121 -25 -165 -3 -20 0 -28 10 -28 9 0 16 14
20 38 3 20 9 55 13 77 l7 40 24 -78 c33 -103 49 -103 82 1 l25 77 13 -77 c9
-55 17 -78 27 -78 17 0 17 0 4 76 -6 32 -13 74 -16 92 -3 22 -10 32 -23 32
-13 0 -23 -19 -41 -75 -13 -41 -26 -75 -29 -75 -3 0 -16 34 -29 75 -18 60 -26
75 -42 75 -11 0 -20 -3 -20 -7z"/>
<path d="M3930 1775 c0 -16 -6 -25 -15 -25 -8 0 -15 -4 -15 -10 0 -5 7 -10 15
-10 10 0 15 -16 17 -62 3 -63 3 -63 36 -66 18 -2 32 1 32 7 0 6 -9 11 -20 11
-18 0 -20 7 -20 55 0 48 2 55 20 55 11 0 20 5 20 10 0 6 -9 10 -20 10 -15 0
-20 7 -20 25 0 16 -6 25 -15 25 -9 0 -15 -9 -15 -25z"/>
<path d="M3470 1675 c0 -60 3 -75 15 -75 12 0 15 15 15 75 0 60 -3 75 -15 75
-12 0 -15 -15 -15 -75z"/>
<path d="M3550 1675 c0 -60 3 -75 15 -75 11 0 15 13 15 54 0 56 17 83 45 72
11 -4 15 -21 15 -66 0 -47 3 -60 15 -60 12 0 15 14 15 63 0 69 -10 87 -50 87
-14 0 -31 -5 -38 -12 -9 -9 -12 -9 -12 0 0 7 -4 12 -10 12 -6 0 -10 -32 -10
-75z"/>
<path d="M3720 1675 c0 -60 3 -75 15 -75 12 0 15 15 15 75 0 60 -3 75 -15 75
-12 0 -15 -15 -15 -75z"/>
<path d="M3802 1738 c-25 -25 -14 -57 24 -73 43 -18 40 -39 -4 -43 -43 -4 -41
-22 2 -22 65 0 82 71 21 86 -38 9 -34 44 5 44 17 0 30 5 30 10 0 14 -64 12
-78 -2z"/>
<path d="M4048 1733 c-31 -36 -28 -104 5 -125 18 -11 87 -10 87 2 0 6 -16 10
-35 10 -24 0 -37 6 -45 19 -15 30 -14 31 40 31 46 0 50 2 50 23 0 49 -70 76
-102 40z m70 -20 c2 -9 -7 -13 -27 -13 -30 0 -39 9 -24 24 11 10 46 3 51 -11z"/>
<path d="M4190 1674 c0 -59 3 -74 15 -74 11 0 15 12 15 49 0 47 17 81 41 81 5
0 9 4 9 9 0 6 -18 9 -40 9 l-40 0 0 -74z"/>
<path d="M4297 1743 c-4 -3 -7 -37 -7 -75 0 -54 3 -68 15 -68 12 0 15 15 15
75 0 69 -6 86 -23 68z"/>
<path d="M4370 1694 c0 -30 5 -64 10 -75 12 -22 59 -26 78 -7 9 9 12 9 12 0 0
-7 7 -12 15 -12 12 0 15 15 15 75 0 60 -3 75 -15 75 -11 0 -15 -12 -15 -44 0
-51 -27 -93 -53 -83 -13 5 -17 20 -17 67 0 47 -3 60 -15 60 -12 0 -15 -13 -15
-56z"/>
<path d="M4540 1675 c0 -60 3 -75 15 -75 11 0 15 12 15 44 0 51 27 93 53 83
13 -5 17 -20 17 -67 0 -47 3 -60 15 -60 11 0 15 13 15 54 0 56 17 83 45 72 11
-4 15 -21 15 -66 0 -47 3 -60 15 -60 12 0 15 13 15 56 0 71 -12 94 -50 94 -16
0 -32 -5 -36 -11 -4 -8 -9 -8 -17 0 -15 15 -60 14 -75 -1 -9 -9 -12 -9 -12 0
0 7 -7 12 -15 12 -12 0 -15 -15 -15 -75z"/>
<path d="M4980 1687 c0 -69 10 -87 50 -87 14 0 31 5 38 12 9 9 12 9 12 0 0 -7
5 -12 10 -12 6 0 10 32 10 75 0 60 -3 75 -15 75 -11 0 -15 -13 -15 -54 0 -56
-17 -83 -45 -72 -11 4 -15 21 -15 66 0 47 -3 60 -15 60 -12 0 -15 -14 -15 -63z"/>
<path d="M5150 1675 c0 -60 3 -75 15 -75 11 0 15 12 15 49 0 48 13 73 42 84 7
2 9 8 5 13 -4 4 -17 3 -27 -4 -12 -7 -20 -8 -20 -2 0 5 -7 10 -15 10 -12 0
-15 -15 -15 -75z"/>
<path d="M2772 1448 c-5 -7 -13 -23 -16 -35 -4 -13 -14 -23 -22 -23 -8 0 -14
-4 -14 -10 0 -5 7 -10 15 -10 12 0 15 -14 15 -65 0 -51 3 -65 15 -65 12 0 15
14 15 65 0 58 2 65 20 65 11 0 20 5 20 10 0 6 -9 10 -20 10 -11 0 -20 4 -20 9
0 25 14 41 36 41 13 0 24 5 24 10 0 14 -56 12 -68 -2z"/>
<path d="M3630 1350 c0 -89 3 -110 14 -110 10 0 16 13 18 38 l3 37 23 -37 c15
-24 31 -38 44 -38 18 0 17 4 -12 40 l-31 40 27 35 c20 27 23 35 11 35 -9 0
-27 -15 -41 -32 l-26 -33 0 68 c0 53 -3 67 -15 67 -12 0 -15 -19 -15 -110z"/>
<path d="M4670 1425 c0 -32 -2 -35 -29 -35 -38 0 -71 -40 -71 -86 0 -47 21
-63 80 -62 l50 1 0 109 c0 89 -3 108 -15 108 -10 0 -15 -11 -15 -35z m0 -99
c0 -47 -17 -70 -47 -64 -13 2 -19 14 -21 41 -4 45 11 67 44 67 22 0 24 -4 24
-44z"/>
<path d="M5610 1350 c0 -91 3 -110 15 -110 12 0 15 19 15 110 0 91 -3 110 -15
110 -12 0 -15 -19 -15 -110z"/>
<path d="M5014 1439 c-10 -17 13 -36 27 -22 12 12 4 33 -11 33 -5 0 -12 -5
-16 -11z"/>
<path d="M5265 1440 c-7 -12 2 -30 16 -30 5 0 9 9 9 20 0 21 -15 27 -25 10z"/>
<path d="M2490 1340 c0 -82 3 -100 15 -100 12 0 15 18 15 100 0 82 -3 100 -15
100 -12 0 -15 -18 -15 -100z"/>
<path d="M3250 1415 c0 -16 -6 -25 -15 -25 -8 0 -15 -4 -15 -10 0 -5 7 -10 15
-10 10 0 15 -16 17 -62 3 -63 3 -63 36 -66 18 -2 32 1 32 7 0 6 -9 11 -20 11
-18 0 -20 7 -20 55 0 48 2 55 20 55 11 0 20 5 20 10 0 6 -9 10 -20 10 -15 0
-20 7 -20 25 0 16 -6 25 -15 25 -9 0 -15 -9 -15 -25z"/>
<path d="M3787 1433 c-4 -3 -7 -15 -7 -25 0 -10 -7 -18 -15 -18 -8 0 -15 -4
-15 -10 0 -5 7 -10 15 -10 11 0 15 -12 15 -46 0 -61 14 -84 50 -84 35 0 41 17
8 22 -20 3 -23 10 -26 56 -3 50 -2 52 22 52 15 0 26 5 26 10 0 6 -11 10 -25
10 -20 0 -25 5 -25 25 0 24 -10 32 -23 18z"/>
<path d="M4810 1339 l0 -101 56 4 c75 6 109 39 109 104 0 65 -35 94 -111 94
l-54 0 0 -101z m115 56 c41 -40 28 -105 -26 -124 -58 -20 -59 -18 -59 69 l0
80 30 0 c19 0 40 -9 55 -25z"/>
<path d="M5347 1433 c-4 -3 -7 -15 -7 -25 0 -10 -7 -18 -15 -18 -8 0 -15 -4
-15 -10 0 -5 7 -10 15 -10 11 0 15 -12 15 -46 0 -61 14 -84 50 -84 35 0 41 17
8 22 -20 3 -23 10 -26 56 -3 50 -2 52 22 52 15 0 26 5 26 10 0 6 -11 10 -25
10 -20 0 -25 5 -25 25 0 24 -10 32 -23 18z"/>
<path d="M2570 1315 c0 -60 3 -75 15 -75 11 0 15 12 15 44 0 51 27 93 53 83
13 -5 17 -20 17 -67 0 -47 3 -60 15 -60 12 0 15 13 15 56 0 30 -5 64 -10 75
-12 22 -59 26 -78 7 -9 -9 -12 -9 -12 0 0 7 -7 12 -15 12 -12 0 -15 -15 -15
-75z"/>
<path d="M2850 1315 c0 -60 3 -75 15 -75 11 0 15 12 15 49 0 48 13 73 42 84 7
2 9 8 5 13 -4 4 -17 3 -27 -4 -12 -7 -20 -8 -20 -2 0 5 -7 10 -15 10 -12 0
-15 -15 -15 -75z"/>
<path d="M2955 1380 c-7 -12 -2 -13 43 -10 26 1 32 -2 32 -18 0 -14 -9 -22
-30 -27 -39 -8 -63 -41 -49 -67 11 -21 58 -25 77 -6 9 9 12 9 12 0 0 -7 5 -12
10 -12 14 0 13 123 -2 138 -15 15 -84 16 -93 2z m73 -92 c-2 -17 -10 -23 -27
-23 -32 0 -39 23 -9 34 35 15 40 13 36 -11z"/>
<path d="M3116 1368 c-19 -27 -7 -53 29 -62 38 -10 34 -46 -5 -46 -16 0 -30
-4 -30 -10 0 -14 64 -12 78 2 25 25 14 57 -24 73 -41 17 -41 38 -1 43 36 4 34
22 -2 22 -19 0 -35 -8 -45 -22z"/>
<path d="M3350 1315 c0 -60 3 -75 15 -75 11 0 15 12 15 49 0 48 13 73 42 84 7
2 9 8 5 13 -4 4 -17 3 -27 -4 -12 -7 -20 -8 -20 -2 0 5 -7 10 -15 10 -12 0
-15 -15 -15 -75z"/>
<path d="M3460 1327 c0 -36 5 -68 12 -75 16 -16 60 -15 77 1 11 10 13 10 7 0
-4 -8 -1 -13 8 -13 13 0 16 14 16 75 0 60 -3 75 -15 75 -11 0 -15 -13 -15 -54
0 -56 -17 -83 -45 -72 -11 4 -15 21 -15 66 0 47 -3 60 -15 60 -12 0 -15 -14
-15 -63z"/>
<path d="M3890 1334 c0 -30 5 -64 10 -75 12 -22 59 -26 78 -7 9 9 12 9 12 0 0
-7 7 -12 15 -12 12 0 15 15 15 75 0 60 -3 75 -15 75 -11 0 -15 -12 -15 -44 0
-51 -27 -93 -53 -83 -13 5 -17 20 -17 67 0 47 -3 60 -15 60 -12 0 -15 -13 -15
-56z"/>
<path d="M4060 1315 c0 -60 3 -75 15 -75 11 0 15 12 15 45 0 36 6 52 26 72 28
28 24 44 -6 25 -12 -7 -20 -8 -20 -2 0 5 -7 10 -15 10 -12 0 -15 -15 -15 -75z"/>
<path d="M4242 1318 c3 -72 3 -73 31 -76 16 -2 35 2 43 9 10 8 14 8 14 0 0 -6
7 -11 15 -11 12 0 15 15 15 75 0 60 -3 75 -15 75 -11 0 -15 -12 -15 -46 0 -55
-14 -84 -40 -84 -18 0 -20 7 -20 65 0 52 -3 65 -15 65 -13 0 -15 -13 -13 -72z"/>
<path d="M4410 1315 c0 -60 3 -75 15 -75 11 0 15 12 15 46 0 55 14 84 40 84
18 0 20 -7 20 -65 0 -52 3 -65 15 -65 13 0 15 13 13 73 -3 71 -3 72 -31 75
-16 2 -35 -2 -43 -9 -10 -8 -14 -8 -14 0 0 6 -7 11 -15 11 -12 0 -15 -15 -15
-75z"/>
<path d="M5020 1316 c0 -62 3 -76 15 -76 13 0 15 12 13 72 -2 46 -7 73 -15 76
-10 3 -13 -16 -13 -72z"/>
<path d="M5106 1374 c-12 -12 -15 -30 -12 -76 3 -37 0 -68 -7 -80 -10 -16 -8
-22 13 -40 45 -37 140 2 123 50 -9 24 -23 32 -60 32 -17 0 -35 5 -38 10 -4 6
5 10 20 10 35 0 78 44 70 70 -4 11 -2 20 4 20 6 0 11 5 11 10 0 17 -107 12
-124 -6z m79 -25 c9 -28 -16 -53 -44 -44 -20 6 -29 43 -14 58 15 15 52 6 58
-14z m6 -125 c11 -14 10 -18 -6 -30 -25 -18 -49 -18 -65 1 -10 12 -10 18 0 30
16 20 54 19 71 -1z"/>
<path d="M5260 1315 c0 -60 3 -75 15 -75 12 0 15 15 15 75 0 60 -3 75 -15 75
-12 0 -15 -15 -15 -75z"/>
<path d="M5457 1383 c-14 -13 -6 -18 30 -18 55 0 55 -26 1 -45 -38 -13 -43
-19 -43 -45 0 -25 4 -30 28 -33 16 -2 35 2 43 9 10 8 14 8 14 0 0 -6 7 -11 15
-11 11 0 15 12 15 49 0 80 -12 101 -58 101 -21 0 -42 -3 -45 -7z m73 -79 c0
-18 -24 -44 -40 -44 -25 0 -27 37 -2 43 26 7 42 8 42 1z"/>
<path d="M5704 1382 c-34 -22 -41 -94 -13 -129 15 -18 99 -18 99 0 0 9 -10 12
-30 9 -32 -5 -60 11 -60 34 0 10 13 14 45 14 53 0 66 17 41 55 -16 25 -58 34
-82 17z m64 -29 c2 -9 -8 -13 -33 -13 -33 0 -36 2 -25 15 15 18 51 16 58 -2z"/>
<path d="M5842 1378 c-25 -25 -14 -57 24 -73 43 -18 40 -39 -4 -43 -43 -4 -41
-22 2 -22 65 0 82 71 21 86 -38 9 -34 44 5 44 17 0 30 5 30 10 0 14 -64 12
-78 -2z"/>
</g>
</svg>
